<svg data-v-0dd9719b="" version="1.0" xmlns="http://www.w3.org/2000/svg" xmlns:xlink="http://www.w3.org/1999/xlink" width="100%" height="100%" viewBox="0 0 340.000000 250.000000" preserveAspectRatio="xMidYMid meet" color-interpolation-filters="sRGB" style="margin: auto;"> <rect data-v-0dd9719b="" x="0" y="0" width="100%" height="100%" fill="#fff" fill-opacity="1" class="background"></rect> <rect data-v-0dd9719b="" x="0" y="0" width="100%" height="100%" fill="url(#watermark)" fill-opacity="1" class="watermarklayer"></rect> <g data-v-0dd9719b="" fill="#333" class="icon-text-wrapper icon-svg-group iconsvg" transform="translate(58.589996337890625,103.46000099182129)"><g class="iconsvg-imagesvg" transform="translate(0,1.019601821899414)"><g><rect fill="#333" fill-opacity="0" stroke-width="2" x="0" y="0" width="60" height="41.04079454978248" class="image-rect"></rect> <svg x="0" y="0" width="60" height="41.04079454978248" filtersec="colorsb6306639974" class="image-svg-svg primary" style="overflow: visible;"><svg xmlns="http://www.w3.org/2000/svg" viewBox="0.0019554495811462402 0.020970821380615234 132.09361267089844 90.3534927368164"><title>资源 15</title><path d="M115.54 8.65c-4.49.94-8.66 1.22-12.35 2.68-11.3 4.5-17.45 13.26-18 25.3-.54 11.64 0 23.33-.26 35a18 18 0 0 1-10.27 16.52C68 91.58 61.4 91 55.31 86.71a18 18 0 0 1-7.94-15c-.19-11.95-.39-23.91 0-35.85.5-14.09 7.94-24.17 20.23-30.36 14.64-7.37 29.51-7.42 44.1.55a43.51 43.51 0 0 1 3.84 2.6z" fill="#ff0069"></path><path d="M58.65 3.44C56 5.37 53.45 7 51.15 8.89 42.53 16 38 25.1 38 36.37V70a20.63 20.63 0 0 1-4.06 12.78 18.75 18.75 0 0 1-20.56 6.67 18.82 18.82 0 0 1-13-17c-.27-12.64-.7-25.3.01-37.89.86-15.08 9.86-24.87 23.27-30.65a46.36 46.36 0 0 1 33.1-1.44 13.71 13.71 0 0 1 1.89.97z" fill="#ffa217"></path><path d="M132 55v17.09c-.11 9.83-7.57 17.48-17.58 18.13-9.72.64-18.61-6.08-19.52-15.63-.77-8-.59-16.11-.56-24.18a138.15 138.15 0 0 1 .83-17c1.42-11 10.3-17.79 21.28-16.66A16.22 16.22 0 0 1 130.6 30.4c1.15 6.77 1 13.75 1.46 20.64.08 1.32 0 2.66 0 4z" fill="#a421ba"></path></svg></svg> <!----></g></g> <g transform="translate(67,0)"><g data-gra="path-name" fill-rule="" class="tp-name iconsvg-namesvg"><g transform="scale(1)"><g><path d="M42.12-42.6Q43.8-42.6 44.82-41.55 45.84-40.5 45.84-38.76L45.84-38.76 45.84-3.24Q45.84-1.56 44.88-0.6 43.92 0.36 42.36 0.36L42.36 0.36Q40.8 0.36 39.9-0.6 39-1.56 39-3.24L39-3.24 39-27.96 28.8-8.64Q28.08-7.32 27.24-6.69 26.4-6.06 25.26-6.06L25.26-6.06Q24.12-6.06 23.28-6.66 22.44-7.26 21.72-8.64L21.72-8.64 11.46-27.66 11.46-3.24Q11.46-1.62 10.53-0.63 9.6 0.36 8.04 0.36L8.04 0.36Q6.48 0.36 5.58-0.6 4.68-1.56 4.68-3.24L4.68-3.24 4.68-38.76Q4.68-40.5 5.67-41.55 6.66-42.6 8.34-42.6L8.34-42.6Q10.68-42.6 12-40.02L12-40.02 25.32-14.64 38.58-40.02Q39.9-42.6 42.12-42.6L42.12-42.6ZM67.08-30.06Q73.2-30.06 76.17-27.03 79.14-24 79.14-17.82L79.14-17.82 79.14-3.18Q79.14-1.56 78.18-0.63 77.22 0.3 75.54 0.3L75.54 0.3Q73.98 0.3 72.99-0.66 72-1.62 72-3.18L72-3.18 72-4.5Q70.98-2.16 68.79-0.84 66.6 0.48 63.72 0.48L63.72 0.48Q60.78 0.48 58.38-0.72 55.98-1.92 54.6-4.02 53.22-6.12 53.22-8.7L53.22-8.7Q53.22-11.94 54.87-13.8 56.52-15.66 60.24-16.5 63.96-17.34 70.5-17.34L70.5-17.34 72-17.34 72-18.72Q72-21.66 70.74-23.01 69.48-24.36 66.66-24.36L66.66-24.36Q64.92-24.36 63.12-23.85 61.32-23.34 58.86-22.38L58.86-22.38Q57.3-21.6 56.58-21.6L56.58-21.6Q55.5-21.6 54.81-22.38 54.12-23.16 54.12-24.42L54.12-24.42Q54.12-25.44 54.63-26.19 55.14-26.94 56.34-27.6L56.34-27.6Q58.44-28.74 61.35-29.4 64.26-30.06 67.08-30.06L67.08-30.06ZM65.22-4.92Q68.22-4.92 70.11-6.93 72-8.94 72-12.12L72-12.12 72-13.38 70.92-13.38Q66.9-13.38 64.68-13.02 62.46-12.66 61.5-11.76 60.54-10.86 60.54-9.3L60.54-9.3Q60.54-7.38 61.89-6.15 63.24-4.92 65.22-4.92L65.22-4.92ZM102-5.22Q105-5.04 105-2.52L105-2.52Q105-1.08 103.83-0.33 102.66 0.42 100.5 0.3L100.5 0.3 98.88 0.18Q88.8-0.54 88.8-10.62L88.8-10.62 88.8-23.7 85.8-23.7Q84.18-23.7 83.31-24.42 82.44-25.14 82.44-26.52L82.44-26.52Q82.44-27.9 83.31-28.62 84.18-29.34 85.8-29.34L85.8-29.34 88.8-29.34 88.8-34.86Q88.8-36.48 89.82-37.44 90.84-38.4 92.58-38.4L92.58-38.4Q94.26-38.4 95.28-37.44 96.3-36.48 96.3-34.86L96.3-34.86 96.3-29.34 101.4-29.34Q103.02-29.34 103.89-28.62 104.76-27.9 104.76-26.52L104.76-26.52Q104.76-25.14 103.89-24.42 103.02-23.7 101.4-23.7L101.4-23.7 96.3-23.7 96.3-10.08Q96.3-5.64 100.38-5.34L100.38-5.34 102-5.22ZM132.12-8.04Q133.14-8.04 133.77-7.26 134.4-6.48 134.4-5.16L134.4-5.16Q134.4-3.3 132.18-2.04L132.18-2.04Q130.14-0.9 127.56-0.21 124.98 0.48 122.64 0.48L122.64 0.48Q115.56 0.48 111.42-3.6 107.28-7.68 107.28-14.76L107.28-14.76Q107.28-19.26 109.08-22.74 110.88-26.22 114.15-28.14 117.42-30.06 121.56-30.06L121.56-30.06Q125.52-30.06 128.46-28.32 131.4-26.58 133.02-23.4 134.64-20.22 134.64-15.9L134.64-15.9Q134.64-13.32 132.36-13.32L132.36-13.32 114.66-13.32Q115.02-9.18 117-7.23 118.98-5.28 122.76-5.28L122.76-5.28Q124.68-5.28 126.15-5.76 127.62-6.24 129.48-7.08L129.48-7.08Q131.28-8.04 132.12-8.04L132.12-8.04ZM121.74-24.78Q118.68-24.78 116.85-22.86 115.02-20.94 114.66-17.34L114.66-17.34 128.22-17.34Q128.1-21 126.42-22.89 124.74-24.78 121.74-24.78L121.74-24.78ZM157.14-29.94Q158.7-30.06 159.6-29.28 160.5-28.5 160.5-26.94L160.5-26.94Q160.5-25.32 159.72-24.54 158.94-23.76 156.9-23.52L156.9-23.52 155.1-23.34Q151.56-22.98 149.91-20.94 148.26-18.9 148.26-15.84L148.26-15.84 148.26-3.24Q148.26-1.5 147.18-0.57 146.1 0.36 144.48 0.36L144.48 0.36Q142.86 0.36 141.81-0.57 140.76-1.5 140.76-3.24L140.76-3.24 140.76-26.46Q140.76-28.14 141.81-29.04 142.86-29.94 144.42-29.94L144.42-29.94Q145.98-29.94 146.94-29.07 147.9-28.2 147.9-26.58L147.9-26.58 147.9-24.18Q149.04-26.82 151.29-28.26 153.54-29.7 156.3-29.88L156.3-29.88 157.14-29.94Z" transform="translate(-4.679999828338623, 42.599998474121094)"></path></g> <!----> <!----> <!----> <!----> <!----> <!----> <!----></g></g> <!----></g></g><defs v-gra="od"></defs></svg>